<svg xmlns="http://www.w3.org/2000/svg" viewBox="0 0 485.42 100"><path d="M6.76,20.26c1.36.47,2.65.87,3.9,1.37s1.27,1,.26,1.72a53.85,53.85,0,0,1-5.32,3.4c-1.45.83-1.48.75-1.46,2.41a13.21,13.21,0,0,0,2,6.59A5.31,5.31,0,0,0,10,38.45q3,.44,6,.8a4.93,4.93,0,0,0,1.42-.14,3.42,3.42,0,0,0,3-4.19,16.28,16.28,0,0,1-.3-2.66c1.14,2.24,2.36,4.44,3.41,6.72a60.48,60.48,0,0,1,4.61,14.26c.27,1.44.75,2.84.93,4.29.72,5.82-1.29,10.86-4.68,15.44-.71,1-1.51,1.85-2.28,2.76a1.83,1.83,0,0,0,.14,2.87,7.8,7.8,0,0,0,5.23,2.26c3.18.08,5.51-1.51,6.06-4.63a41.84,41.84,0,0,0,.62-8.43,25.18,25.18,0,0,1,2.46-11.7,64,64,0,0,0,3.24,22.1c.14-.44.21-.63.27-.82,1-3.52,2.09-7,3.16-10.57a38.36,38.36,0,0,0,1.44-18.17,23.93,23.93,0,0,0-4.46-9.43,11.4,11.4,0,0,1-1.09-1.67c11,7,18.49,16.41,19.14,30,.63,13-5.24,23-15.16,30.94A35.19,35.19,0,0,0,47.64,85a45.17,45.17,0,0,0,.42-5.62c-1.47,3.56-4.48,6-6.42,9.16a42.16,42.16,0,0,0-1.94,3.93c-.15.33-.27.67-.48,1.22C37.49,90,35.85,86.46,35.35,82.5c-.07,0-.17,0-.21.11a7.39,7.39,0,0,1-8.59,2.44,18.14,18.14,0,0,1-6.94-4.92A4.39,4.39,0,0,1,18.68,76a1.28,1.28,0,0,0-.34-1.35,14.35,14.35,0,0,1-3.69-10.92c0-.87.15-1.73.26-2.89.67,1,1.16,1.69,1.67,2.39a14.71,14.71,0,0,0,6.16,5.07c.71.3,1.09.16,1.45-.54,3.22-6.28,2.64-12.32-1.25-18.08-1.87-2.78-4-5.39-7.23-6.71-.35-.14-.7-.27-1.06-.38a2.39,2.39,0,0,0-.49-.06,46.7,46.7,0,0,0-.62,10A11.41,11.41,0,0,1,9,49.21a21.58,21.58,0,0,1-3.94-9.12,5.36,5.36,0,0,0-.83-1.8A21.78,21.78,0,0,1,.07,25.58c0-1.4,0-2.8-.07-4.19,0-2.71,1.08-4.1,3.73-4.66,5-1.05,10.08-2.07,15.11-3.16a5.91,5.91,0,0,0,2.32-1c3.78-3,8.27-4,12.8-5.1,8-1.92,15.91-4,23.87-6A58.17,58.17,0,0,1,73.05,0,168.29,168.29,0,0,1,101.87,3.3c1.1.21,2.19.5,3.3.64.86.11,1.14.45,1.1,1.31-.2,4.43-.23,8.86-.52,13.28a147.74,147.74,0,0,1-3.44,24.06c-.86,3.64-1.93,7.22-2.91,10.82-.09.36-.25.7-.44,1.24-.32-.48-.56-.83-.78-1.19a112.36,112.36,0,0,0-17.1-22,74.11,74.11,0,0,0-20.87-15,8.19,8.19,0,0,1-1.59-.86c10.62.23,20.5,3.38,30.11,7.64-1-2.54-8.56-9.71-13.34-12.5A31.13,31.13,0,0,0,57.45,6.28l9,3.19-.08.2c-3,.63-6,1.14-8.92,1.91s-5.83,1.78-9.06,2.79c9.73,8,16.8,17.38,20.93,28.89a46.17,46.17,0,0,1,2.78,12.87,41.57,41.57,0,0,0-7-11.8,38.75,38.75,0,0,0-10.48-8.88c-4-2.25-8.23-4.13-11.94-6H53.29a13.36,13.36,0,0,0-1.84-1.32,7.47,7.47,0,0,1-3.88-4.75c-.66-2.05-1.42-4.06-2.09-6.09a6.47,6.47,0,0,0-4.56-4.42,27.62,27.62,0,0,0-13.15-.5,5.26,5.26,0,0,0-2.24.94c-3,2.42-6.53,3.44-10.13,4.39-2.59.69-5.17,1.46-7.75,2.2C7.37,20,7.09,20.14,6.76,20.26ZM75.27,71c4.56-17.6,2.38-33.57-11.54-46.92a4.94,4.94,0,0,1,.73.32C75.61,32,83.13,42,85.41,55.52,87,65,85.19,74.08,80.93,82.7c-2.44,5-6,9.06-9.61,13.16-1.14,1.3-2.26,2.61-3.59,4.14.19-2,.39-3.7.5-5.41.82-12.2-.12-24.19-4.58-35.7a46.14,46.14,0,0,0-9.51-15.26,1.53,1.53,0,0,1-.39-.65C63.79,50.08,70.75,59.54,75.27,71ZM39.87,20.11l-20,.71,0-.15.87-.28c1.37-.41,2.74-.81,4.11-1.24,1-.32,1.95-.67,2.24-1.94a2.75,2.75,0,0,1,1.11-1.28,16.9,16.9,0,0,1,6-2.54c-.45,1.14-.82,2.09-1.23,3.16l6.93,3.32Z" fill="#fff"/><path d="M130.25,69.71,136,65.2a1,1,0,0,1,1.43.16c3.48,4,8.78,5.3,13.93,5.3,4.19,0,10.45-1.58,10.45-6.81,0-10.6-30.8-9.5-30.8-27.62,0-10.85,9-16.23,19-16.23,6.81,0,13.46,3.09,18.68,7.44a.94.94,0,0,1,.08,1.43L164,34.33a1,1,0,0,1-1.42.08,19.22,19.22,0,0,0-12.83-5.07c-4.74,0-9.34,1.66-9.34,7.2,0,9.5,30.8,8.24,30.8,27.63,0,10.76-10.61,15.83-20.11,15.83-7.84,0-15.91-2.69-21-8.87A1,1,0,0,1,130.25,69.71Zm51.37-46.39a1,1,0,0,1,1-1h7.44a1,1,0,0,1,1,1v6.81a1,1,0,0,1-1,1h-7.44a1,1,0,0,1-1-1Zm1,15.52h7.44a1,1,0,0,1,1,1V76.68a1,1,0,0,1-1,1h-7.44a1,1,0,0,1-1-1V39.87A1,1,0,0,1,182.65,38.84Zm20.5-15.52a1,1,0,0,1,1-1h1.19A2.6,2.6,0,0,1,207,23l30.32,32.53c.39.4.63.56,1,.56s.55-.4.55-1.19V23.32a1,1,0,0,1,1-1h7.44a1,1,0,0,1,1,1V76.68a1,1,0,0,1-1,1h-1.11a2.39,2.39,0,0,1-1.74-.79l-40.6-43.69a3.07,3.07,0,0,1-.72-1.82Zm0,21.93c0-.63.32-.71.72-.24l8.07,8.71a2.66,2.66,0,0,1,.71,1.74V76.68a1,1,0,0,1-1,1h-7.44a1,1,0,0,1-1-1Zm56,4.75c0-14.49,9.49-28.89,28.57-28.89,5.54,0,10.85,2.21,15.67,5a1,1,0,0,1,.24,1.43l-4.27,6.09a.9.9,0,0,1-1.43.24,17.34,17.34,0,0,0-10.13-3.32c-24.93,0-24.93,38.94,0,38.94,3.09,0,9.26-.47,9.26-4.75v-.79a1,1,0,0,1,1-1h7.52a1,1,0,0,1,1,1v7.28a2.26,2.26,0,0,1-.79,1.67,31.46,31.46,0,0,1-18.13,6C268.61,78.89,259.12,64.41,259.12,50Zm24.93,5.3V48.5a1,1,0,0,1,1-1h20.5a1,1,0,0,1,1,1v6.8a1,1,0,0,1-1,1h-20.5A1,1,0,0,1,284.05,55.3Zm34.83-33h7.44a1,1,0,0,1,1,1v20a2.08,2.08,0,0,0,2.21,2.22h22a2.08,2.08,0,0,0,2.22-2.22v-20a1,1,0,0,1,1-1h7.44a1,1,0,0,1,1,1V76.68a1,1,0,0,1-1,1h-7.44a1,1,0,0,1-1-1v-20a2.08,2.08,0,0,0-2.22-2.22H318.88a1,1,0,0,1-1-1V23.32A1,1,0,0,1,318.88,22.3Zm0,40.52h7.44a1,1,0,0,1,1,1V76.68a1,1,0,0,1-1,1h-7.44a1,1,0,0,1-1-1V63.85A1,1,0,0,1,318.88,62.82Zm55.17-32.69V23.32a1,1,0,0,1,1-1h33.8a1,1,0,0,1,1,1v6.81a1,1,0,0,1-1,1h-33.8A1,1,0,0,1,374.05,30.13Zm0,16.47a1,1,0,0,1,1-1h33.8a1,1,0,0,1,1,1v6.8a1,1,0,0,1-1,1h-33.8a1,1,0,0,1-1-1Zm1,22.24h33.8a1,1,0,0,1,1,1v6.81a1,1,0,0,1-1,1h-33.8a1,1,0,0,1-1-1V69.87A1,1,0,0,1,375.08,68.84Z" fill="#fff"/><path d="M442.28,79.6c-11.16,0-22.4-7.67-22.4-22.95V23.32a1,1,0,0,1,1-1h7.44a1,1,0,0,1,1,1V56.65c0,8.63,6.49,12.9,12.9,12.9s12.91-4.27,12.91-12.9V23.32a1,1,0,0,1,1-1h7.44a1,1,0,0,1,1,1V56.65C464.68,71.93,453.52,79.6,442.28,79.6ZM477,22.3h7.44a1,1,0,0,1,1,1V76.68a1,1,0,0,1-1,1H477a1,1,0,0,1-1-1V23.32A1,1,0,0,1,477,22.3Z" fill="#14b8a6"/></svg>
